<?xml version="1.0" encoding="utf-8"?>
<!-- Generator: Adobe Illustrator 19.0.0, SVG Export Plug-In . SVG Version: 6.00 Build 0)  -->
<svg version="1.1" id="Layer_1" xmlns="http://www.w3.org/2000/svg" xmlns:xlink="http://www.w3.org/1999/xlink" x="0px" y="0px"
	 viewBox="247.9 380.5 99.5 80.9" style="enable-background:new 247.9 380.5 99.5 80.9;" xml:space="preserve">
<style type="text/css">
	.st0{fill:url(#XMLID_5_);}
	.st1{fill:#FFFFFF;}
</style>
<g id="XMLID_2_">
	
		<linearGradient id="XMLID_5_" gradientUnits="userSpaceOnUse" x1="297.65" y1="293.6907" x2="297.65" y2="631.7277" gradientTransform="matrix(1 0 0 -1 0 841.87)">
		<stop  offset="0" style="stop-color:#0C7E82"/>
		<stop  offset="0.1185" style="stop-color:#0C7E82"/>
		<stop  offset="0.3635" style="stop-color:#169481"/>
		<stop  offset="0.6211" style="stop-color:#22AA7D"/>
		<stop  offset="0.7606" style="stop-color:#24B67C"/>
		<stop  offset="1" style="stop-color:#24B67C"/>
	</linearGradient>
	<path id="XMLID_84_" class="st0" d="M337.1,411c-2.9-10.7-9.8-19.5-19.3-25c-6.3-3.6-13.4-5.5-20.5-5.5c-3.6,0-7.3,0.5-10.9,1.5
		l-38.5,10.4l10.4,38.5c6,22,28.7,35,50.7,29.1l38.4-10.4L337.1,411z"/>
	<g id="XMLID_1_">
		<path id="XMLID_4_" class="st1" d="M273.5,414.5c0.9,0,1.6,0.1,2,0.2v8.9H271c-1.2,0-2.1-0.1-2.8-0.4c-0.7-0.3-1.2-0.7-1.5-1.4
			s-0.5-1.6-0.5-2.9c0-1.2,0.2-2.1,0.5-2.8c0.3-0.6,0.8-1.1,1.5-1.3c0.7-0.3,1.7-0.4,2.9-0.4C271.7,414.5,272.5,414.5,273.5,414.5z
			 M268.8,420.5c0.2,0.4,0.4,0.6,0.8,0.7s0.9,0.2,1.5,0.2h1.9v-4.7c-0.6-0.1-1.2-0.1-1.9-0.1s-1.2,0.1-1.5,0.2s-0.6,0.4-0.8,0.7
			s-0.3,0.8-0.3,1.4C268.5,419.7,268.6,420.2,268.8,420.5z M269,410.7h1.9v2.3H269V410.7z M271.7,410.7h1.9v2.3h-1.9V410.7z"/>
		<path id="XMLID_9_" class="st1" d="M277.1,428v-2.2h0.6c0.4,0,0.8-0.2,1-0.5s0.3-0.8,0.3-1.4v-9.3h2.4v8.9c0,1.4-0.2,2.6-0.7,3.4
			s-1.3,1.2-2.3,1.2C278.2,428.1,277.8,428.1,277.1,428z"/>
		<path id="XMLID_11_" class="st1" d="M289.1,414.9c0.7,0.5,1.3,1.2,1.7,2.1c0.4,0.9,0.6,2.1,0.6,3.5v3.1h-8.2v-2.2h5.8v-0.6
			c0-1.6-0.3-2.7-0.9-3.3s-1.3-1-2.1-1h-1.8l-0.2-1.9c0.4-0.1,0.8-0.2,1.3-0.2c0.5-0.1,0.9-0.1,1.3-0.1
			C287.5,414.2,288.3,414.5,289.1,414.9z"/>
		<path id="XMLID_13_" class="st1" d="M297.5,421.5v2.2h-4.2v-12.6h2.4v10.4H297.5z"/>
		<path id="XMLID_15_" class="st1" d="M305.3,421.5v2.2h-7.8v-2.2h2.7v-6.8h2.4v6.8H305.3z M300.3,425.1h2.2v2.3h-2.2V425.1z"/>
		<path id="XMLID_18_" class="st1" d="M318.6,421.5v2.2h-1c-0.2,0-0.4-0.1-0.6-0.2s-0.3-0.3-0.4-0.6v0.8h-11.3v-2.2h2.8
			c-0.2-0.9-0.3-1.6-0.3-2.3c0-0.7,0.1-1.4,0.2-2.1c0.1-0.8,0.3-1.4,0.5-2c0.3-0.2,0.8-0.3,1.4-0.4s1.3-0.2,2.1-0.2
			c1.2,0,2.2,0.2,2.9,0.5s1.1,0.9,1.3,1.5c0.2,0.7,0.4,1.5,0.4,2.6v1.5c0.1,0.2,0.2,0.4,0.4,0.6c0.2,0.1,0.4,0.2,0.6,0.2h1V421.5z
			 M310.3,420.4c0.1,0.4,0.1,0.8,0.2,1h3.8V419c0-0.8-0.2-1.5-0.5-1.9s-1-0.6-1.9-0.6c-0.5,0-0.9,0-1.4,0.1
			c-0.2,0.9-0.3,1.7-0.3,2.4C310.2,419.6,310.2,420,310.3,420.4z"/>
		<path id="XMLID_21_" class="st1" d="M323.2,411v12.6h-4.6v-2.2h2.2V411H323.2z"/>
		<path id="XMLID_23_" class="st1" d="M326.1,411h2.4v12.6h-2.4V411z"/>
	</g>
</g>
</svg>
