<?xml version="1.0" encoding="utf-8"?>
<!-- Generator: Adobe Illustrator 19.0.0, SVG Export Plug-In . SVG Version: 6.00 Build 0)  -->
<svg version="1.1" id="Layer_1" xmlns="http://www.w3.org/2000/svg" xmlns:xlink="http://www.w3.org/1999/xlink" x="0px" y="0px"
	 viewBox="-257 364.1 80.6 114.8" style="enable-background:new -257 364.1 80.6 114.8;" xml:space="preserve">
<style type="text/css">
	.st0{fill:url(#XMLID_2_);}
	.st1{fill:#FFFFFF;}
</style>
<g id="XMLID_27_">
	<linearGradient id="XMLID_2_" gradientUnits="userSpaceOnUse" x1="-216.7" y1="686.4872" x2="-216.7" y2="348.4502">
		<stop  offset="0" style="stop-color:#077D80"/>
		<stop  offset="0.1185" style="stop-color:#077D80"/>
		<stop  offset="0.1999" style="stop-color:#0B867F"/>
		<stop  offset="0.5637" style="stop-color:#1BA87C"/>
		<stop  offset="0.7606" style="stop-color:#21B57B"/>
		<stop  offset="1" style="stop-color:#21B57B"/>
	</linearGradient>
	<path id="XMLID_71_" class="st0" d="M-188.5,392.3l-28.2-28.2l-28.2,28.2c-7.8,7.8-12.1,18.2-12.1,29.2c0,11,4.3,21.4,12.1,29.2
		l28.2,28.2l28.2-28.2C-172.4,434.6-172.4,408.4-188.5,392.3z"/>
	<g>
		<path class="st1" d="M-236.9,426.4h-1.9v0.3c0,0.8-0.2,1.5-0.6,2.1c-0.4,0.6-1,1.2-1.8,1.5c-0.8,0.4-1.6,0.6-2.7,0.6
			c-1,0-1.9-0.2-2.7-0.6c-0.8-0.4-1.4-0.9-1.9-1.5c-0.5-0.6-0.7-1.4-0.7-2.1c0-0.8,0.2-2.5,0.6-5.2l2.3,0.1
			c-0.1,0.9-0.3,1.9-0.4,2.8c-0.1,1-0.2,1.6-0.2,1.9c0,0.4,0.1,0.8,0.4,1.2c0.2,0.4,0.6,0.6,1,0.8c0.4,0.2,0.9,0.3,1.5,0.3
			s1-0.1,1.4-0.3s0.7-0.5,1-0.8c0.2-0.3,0.3-0.7,0.3-1.1v-9h2.4v6.8h1.9V426.4z M-244.9,415h2.2v2.3h-2.2V415z"/>
		<path class="st1" d="M-229.1,424.2v2.2h-7.8v-2.2h2.7v-6.8h2.4v6.8H-229.1z M-235.3,427.8h1.9v2.3h-1.9V427.8z M-232.6,427.8h1.9
			v2.3h-1.9V427.8z"/>
		<path class="st1" d="M-216.3,424.2v2.2h-12.8v-2.2h8V422c0-0.6-0.1-1.1-0.4-1.5c-0.3-0.4-0.6-0.6-1.1-0.6h-4.8l-1.2-1.7l1.1-2.1
			c0.2-0.5,0.6-1,1-1.5c0.4-0.5,0.8-1,1.2-1.4l1.8,1c-0.6,0.9-1.2,1.9-1.8,2.9l-0.3,0.6h3.6c1,0,1.7,0.3,2.2,0.8
			c0.5,0.5,0.9,1.1,1,1.7s0.3,1.3,0.3,1.8v2.2H-216.3z"/>
		<path class="st1" d="M-203,424.2v2.2h-1c-0.2,0-0.4-0.1-0.6-0.2c-0.2-0.1-0.3-0.3-0.4-0.6v0.8h-11.3v-2.2h2.8
			c-0.2-0.9-0.3-1.6-0.3-2.3c0-0.7,0.1-1.4,0.2-2.1c0.1-0.8,0.3-1.4,0.5-2c0.3-0.2,0.8-0.3,1.4-0.4c0.6-0.1,1.3-0.2,2.1-0.2
			c1.2,0,2.2,0.2,2.9,0.5s1.1,0.9,1.3,1.5c0.2,0.7,0.4,1.5,0.4,2.6v1.5c0.1,0.2,0.2,0.4,0.4,0.6c0.2,0.1,0.4,0.2,0.6,0.2H-203z
			 M-211.3,423.1c0.1,0.4,0.1,0.8,0.2,1h3.8v-2.4c0-0.8-0.2-1.5-0.5-1.9c-0.3-0.4-1-0.6-1.9-0.6c-0.5,0-0.9,0-1.4,0.1
			c-0.2,0.9-0.3,1.7-0.3,2.4C-211.4,422.3-211.3,422.7-211.3,423.1z"/>
		<path class="st1" d="M-195.2,424.2v2.2h-7.8v-2.2h2.7v-6.8h2.4v6.8H-195.2z M-201.4,413.4h1.9v2.3h-1.9V413.4z M-198.7,413.4h1.9
			v2.3h-1.9V413.4z"/>
		<path class="st1" d="M-190.6,413.8v12.6h-4.6v-2.2h2.2v-10.4H-190.6z"/>
		<path class="st1" d="M-187.7,413.8h2.4v12.6h-2.4V413.8z"/>
	</g>
</g>
</svg>
