<?xml version="1.0" encoding="utf-8"?>
<!-- Generator: Adobe Illustrator 19.0.0, SVG Export Plug-In . SVG Version: 6.00 Build 0)  -->
<svg version="1.1" id="Layer_1" xmlns="http://www.w3.org/2000/svg" xmlns:xlink="http://www.w3.org/1999/xlink" x="0px" y="0px"
	 viewBox="247.9 380.6 99.5 80.8" style="enable-background:new 247.9 380.6 99.5 80.8;" xml:space="preserve">
<style type="text/css">
	.st0{fill:url(#XMLID_4_);}
	.st1{fill:#FFFFFF;}
</style>
<g id="XMLID_23_">
	
		<linearGradient id="XMLID_4_" gradientUnits="userSpaceOnUse" x1="297.6494" y1="202.5173" x2="297.6494" y2="540.5543" gradientTransform="matrix(1 0 0 -1 -1.864696e-006 841.8699)">
		<stop  offset="0" style="stop-color:#0C7E82"/>
		<stop  offset="0.1185" style="stop-color:#0C7E82"/>
		<stop  offset="0.3635" style="stop-color:#169481"/>
		<stop  offset="0.6211" style="stop-color:#22AA7D"/>
		<stop  offset="0.7606" style="stop-color:#24B67C"/>
		<stop  offset="1" style="stop-color:#24B67C"/>
	</linearGradient>
	<path id="XMLID_92_" class="st0" d="M277.6,455.9c9.6,5.5,20.7,6.9,31.4,4l38.4-10.4L337,411.1c-2.9-10.7-9.8-19.5-19.3-25
		c-6.3-3.6-13.4-5.5-20.5-5.5c-3.6,0-7.3,0.5-10.9,1.5l-38.4,10.4l10.4,38.5C261.1,441.5,268,450.4,277.6,455.9z"/>
	<g id="XMLID_1_">
		<path id="XMLID_2_" class="st1" d="M271.4,428.3c-0.8-0.4-1.4-0.9-1.9-1.5s-0.7-1.4-0.7-2.1c0-0.8,0.2-2.5,0.6-5.2l2.3,0.1
			c-0.1,0.9-0.3,1.9-0.4,2.8c-0.1,1-0.2,1.6-0.2,1.9c0,0.4,0.1,0.8,0.4,1.2c0.2,0.4,0.6,0.6,1,0.8s0.9,0.3,1.5,0.3s1-0.1,1.4-0.3
			s0.7-0.5,1-0.8c0.2-0.3,0.3-0.7,0.3-1.1v-9h2.4v9.3c0,0.8-0.2,1.5-0.6,2.1c-0.4,0.6-1,1.2-1.8,1.5c-0.8,0.4-1.6,0.6-2.7,0.6
			C273.1,428.9,272.2,428.7,271.4,428.3z M273.1,413.1h2.2v2.3h-2.2V413.1z"/>
		<path id="XMLID_5_" class="st1" d="M287.3,415.2c0.8,0.1,1.4,0.2,2,0.3v7.3c0,1-0.1,1.9-0.2,2.8c-0.2,0.9-0.5,1.6-1.1,2.3
			s-1.4,1-2.5,1c-0.6,0-1.7-0.1-3.1-0.3v-2.2c1.4,0.2,2.4,0.3,2.9,0.3c0.4,0,0.7-0.1,0.9-0.2c0.2-0.1,0.4-0.4,0.5-0.7
			s0.2-0.8,0.2-1.4h-2.1c-2.5,0-3.7-1.4-3.7-4.2c0-1.4,0.2-2.5,0.5-3.3c0.3-0.8,0.8-1.2,1.4-1.5c0.6-0.3,1.3-0.4,2.3-0.4
			C285.7,415.1,286.5,415.1,287.3,415.2z M283.7,421.6c0.3,0.4,0.8,0.6,1.6,0.6h1.5v-4.9c-0.5-0.1-0.9-0.1-1.3-0.1
			c-0.5,0-0.9,0.1-1.2,0.2c-0.3,0.1-0.5,0.4-0.7,0.8c-0.2,0.4-0.3,1-0.3,1.8C283.3,420.7,283.5,421.2,283.7,421.6z"/>
		<path id="XMLID_8_" class="st1" d="M295.7,422.2v2.2h-4.1v-12.6h2.4v10.4H295.7z"/>
		<path id="XMLID_10_" class="st1" d="M307.7,422.2v2.2h-2.4c-0.6,0-1.2-0.1-1.8-0.2s-1.2-0.3-1.7-0.6c-0.5,0.2-1.1,0.4-1.7,0.6
			c-0.6,0.1-1.2,0.2-1.7,0.2h-2.6v-2.2h2.6c0.4,0,0.8,0,1.2-0.1c-0.9-0.8-1.5-1.4-1.9-2s-0.7-1.2-0.7-1.9l-0.1-1.6
			c0.6-0.4,1.3-0.7,2.2-1s1.8-0.4,2.7-0.4s1.8,0.1,2.7,0.4s1.7,0.6,2.3,1l-0.1,1.6c0,0.7-0.2,1.3-0.7,1.9c-0.4,0.6-1.1,1.3-1.9,2
			c0.4,0.1,0.9,0.1,1.2,0.1H307.7z M303.8,419.4c0.4-0.6,0.6-1.1,0.6-1.6c-0.9-0.3-1.8-0.4-2.6-0.4c-0.8,0-1.7,0.1-2.5,0.4
			c0,0.5,0.2,1.1,0.6,1.7s1.1,1.1,1.9,1.6C302.7,420.6,303.4,420,303.8,419.4z"/>
		<path id="XMLID_13_" class="st1" d="M315.5,422.2v2.2h-7.8v-2.2h2.7v-6.8h2.4v6.8H315.5z M309.3,411.5h1.9v2.3h-1.9V411.5z
			 M312,411.5h1.9v2.3H312V411.5z"/>
		<path id="XMLID_17_" class="st1" d="M320.1,411.8v12.6h-4.6v-2.2h2.2v-10.4H320.1z"/>
		<path id="XMLID_19_" class="st1" d="M323,411.8h2.4v12.6H323V411.8z"/>
	</g>
</g>
</svg>
