<?xml version="1.0" encoding="utf-8"?>
<!-- Generator: Adobe Illustrator 19.0.0, SVG Export Plug-In . SVG Version: 6.00 Build 0)  -->
<svg version="1.1" id="Layer_1" xmlns="http://www.w3.org/2000/svg" xmlns:xlink="http://www.w3.org/1999/xlink" x="0px" y="0px"
	 viewBox="248.1 380.5 99 80.9" style="enable-background:new 248.1 380.5 99 80.9;" xml:space="preserve">
<style type="text/css">
	.st0{fill:url(#XMLID_4_);}
	.st1{fill:#FFFFFF;}
</style>
<g id="XMLID_29_">
	
		<linearGradient id="XMLID_4_" gradientUnits="userSpaceOnUse" x1="297.65" y1="294.8672" x2="297.65" y2="632.9042" gradientTransform="matrix(1 0 0 -1 0 841.8699)">
		<stop  offset="0" style="stop-color:#0C7E82"/>
		<stop  offset="0.1185" style="stop-color:#0C7E82"/>
		<stop  offset="0.3635" style="stop-color:#169481"/>
		<stop  offset="0.6211" style="stop-color:#22AA7D"/>
		<stop  offset="0.7606" style="stop-color:#24B67C"/>
		<stop  offset="1" style="stop-color:#24B67C"/>
	</linearGradient>
	<path id="XMLID_108_" class="st0" d="M298.2,380.5c-7.2,0-14.4,1.9-20.8,5.7c-9.5,5.6-16.3,14.5-19.1,25.2l-10.1,38.5l38.5,10.1
		c10.7,2.8,21.8,1.3,31.3-4.3c9.5-5.6,16.3-14.5,19.1-25.2l10.1-38.5l-38.5-10.1C305.3,381,301.7,380.5,298.2,380.5z"/>
	<g id="XMLID_1_">
		<path id="XMLID_2_" class="st1" d="M273.3,414.6c0.9,0,1.6,0.1,2,0.2v8.9h-4.5c-1.2,0-2.1-0.1-2.8-0.4s-1.2-0.7-1.5-1.4
			s-0.5-1.6-0.5-2.9c0-1.2,0.2-2.1,0.5-2.8c0.3-0.6,0.8-1.1,1.5-1.3c0.7-0.3,1.7-0.4,2.9-0.4C271.5,414.6,272.4,414.6,273.3,414.6z
			 M268.6,420.6c0.2,0.4,0.4,0.6,0.8,0.7c0.4,0.1,0.9,0.2,1.5,0.2h1.9v-4.7c-0.6-0.1-1.2-0.1-1.9-0.1c-0.7,0-1.2,0.1-1.5,0.2
			c-0.4,0.1-0.6,0.4-0.8,0.7s-0.3,0.8-0.3,1.4C268.4,419.8,268.5,420.3,268.6,420.6z M268.8,410.8h1.9v2.3h-1.9V410.8z M271.5,410.8
			h1.9v2.3h-1.9V410.8z"/>
		<path id="XMLID_7_" class="st1" d="M284.2,423.7h-3c0,1.4-0.3,2.5-0.8,3.3s-1.2,1.2-2.2,1.2c-0.2,0-0.6,0-1.3-0.1v-2.2h0.6
			c0.4,0,0.8-0.2,1-0.5s0.3-0.8,0.3-1.4v-9.3h2.4v6.8h3V423.7z"/>
		<path id="XMLID_9_" class="st1" d="M289.3,414.7v9h-5.1v-2.2h2.7v-6.8H289.3z M287,425.2h2.2v2.3H287V425.2z"/>
		<path id="XMLID_12_" class="st1" d="M296.1,421.5v2.2H292v-12.6h2.4v10.4H296.1z"/>
		<path id="XMLID_14_" class="st1" d="M303.9,421.5v2.2H296v-2.2h2.7v-6.8h2.4v6.8H303.9z M297.7,410.9h1.9v2.2h-1.9V410.9z
			 M299.2,408.4h1.7v2h-1.7V408.4z M300.4,410.9h1.9v2.2h-1.9V410.9z"/>
		<path id="XMLID_19_" class="st1" d="M317.2,421.5v2.2h-1c-0.2,0-0.4-0.1-0.6-0.2c-0.2-0.1-0.3-0.3-0.4-0.6v0.8h-11.3v-2.2h2.8
			c-0.2-0.9-0.3-1.6-0.3-2.3c0-0.7,0.1-1.4,0.2-2.1c0.1-0.8,0.3-1.4,0.5-2c0.3-0.2,0.8-0.3,1.4-0.4c0.6-0.1,1.3-0.2,2.1-0.2
			c1.2,0,2.2,0.2,2.9,0.5c0.7,0.3,1.1,0.9,1.3,1.5c0.2,0.7,0.4,1.5,0.4,2.6v1.5c0.1,0.2,0.2,0.4,0.4,0.6c0.2,0.1,0.4,0.2,0.6,0.2
			L317.2,421.5L317.2,421.5z M308.9,420.5c0.1,0.4,0.1,0.8,0.2,1h3.8v-2.4c0-0.8-0.2-1.5-0.5-1.9s-1-0.6-1.9-0.6
			c-0.5,0-0.9,0-1.4,0.1c-0.2,0.9-0.3,1.7-0.3,2.4C308.8,419.7,308.9,420.1,308.9,420.5z"/>
		<path id="XMLID_22_" class="st1" d="M321.9,411.1v12.6h-4.6v-2.2h2.2v-10.4H321.9z"/>
		<path id="XMLID_24_" class="st1" d="M324.7,411.1h2.4v12.6h-2.4V411.1z"/>
	</g>
</g>
</svg>
