<?xml version="1.0" encoding="utf-8"?>
<!-- Generator: Adobe Illustrator 19.0.0, SVG Export Plug-In . SVG Version: 6.00 Build 0)  -->
<svg version="1.1" id="Layer_1" xmlns="http://www.w3.org/2000/svg" xmlns:xlink="http://www.w3.org/1999/xlink" x="0px" y="0px"
	 viewBox="22.8 312.4 89.1 217.9" style="enable-background:new 22.8 312.4 89.1 217.9;" xml:space="preserve">
<style type="text/css">
	.st0{fill:url(#XMLID_3_);}
	.st1{fill:#58595B;}
	.st2{fill:url(#XMLID_4_);}
	.st3{fill:url(#XMLID_5_);}
	.st4{fill:url(#XMLID_6_);}
	.st5{fill:url(#XMLID_7_);}
	.st6{fill:url(#XMLID_8_);}
	.st7{fill:url(#XMLID_9_);}
</style>
<g id="XMLID_30_">
	
		<linearGradient id="XMLID_3_" gradientUnits="userSpaceOnUse" x1="39.66" y1="434.98" x2="93.16" y2="434.98" gradientTransform="matrix(1 0 0 -1 0 843.67)">
		<stop  offset="0" style="stop-color:#8A5E3C"/>
		<stop  offset="0.1185" style="stop-color:#8A5E3C"/>
		<stop  offset="0.2138" style="stop-color:#946743"/>
		<stop  offset="0.5686" style="stop-color:#B58A5F"/>
		<stop  offset="0.7606" style="stop-color:#C3996B"/>
		<stop  offset="1" style="stop-color:#C3996B"/>
	</linearGradient>
	<path id="XMLID_2_" class="st0" d="M40,418.5h7.8c3.5-9,8.9-17.3,16-24.3l3.1-3.1l2.9,3c6.9,7.1,12.2,15.4,15.5,24.4h7.8
		c-3.6-11-9.7-21.1-18-29.6l-3.3-3.4l10.9-13.2c5.1-6.2,7.8-14,7.4-22c-0.4-8-3.7-15.6-9.4-21.3l-16.6-16.6l-15.5,19.1
		c-10.3,12.7-9.5,31.1,2,42.8l11.2,11.4l-3.2,3.1C50.1,397.4,43.8,407.5,40,418.5z M55.8,369.3c-8.9-9-9.5-23.2-1.6-33l10.4-12.8
		l10.9,10.9c9.1,9.1,9.8,23.5,1.5,33.4l-10.5,12.6L55.8,369.3z M69.6,490.7l-3.7,3.7l-2.8-2.8c-7-7.1-12.3-15.5-15.7-24.6h-7.8
		c3.6,11.1,9.8,21.2,18.2,29.8l8,8.1l8.9-9c8.2-8.3,14.3-18.1,18-28.9h-7.8C81.6,475.8,76.4,483.8,69.6,490.7z"/>
	<g id="XMLID_144_">
		<path id="XMLID_145_" class="st1" d="M34.8,515.8h0.6v10.7h2.2v0.6h-2.8V515.8z"/>
		<path id="XMLID_147_" class="st1" d="M37.4,526.6h3.2v0.6h-3.2V526.6z"/>
		<path id="XMLID_149_" class="st1" d="M40.3,526.6h1.8v-6.8h0.6v6.8h1.9v0.6h-4.3V526.6z M42.8,517.8c-0.1,0.1-0.2,0.2-0.4,0.2
			s-0.3-0.1-0.4-0.2c-0.1-0.1-0.2-0.2-0.2-0.4s0.1-0.3,0.2-0.4c0.1-0.1,0.2-0.2,0.4-0.2s0.3,0.1,0.4,0.2c0.1,0.1,0.2,0.2,0.2,0.4
			C42.9,517.6,42.9,517.7,42.8,517.8z"/>
		<path id="XMLID_152_" class="st1" d="M44,526.6h2.1c0-0.2-0.1-0.5-0.2-0.8c-0.1-0.3-0.1-0.7-0.1-1c0-0.5,0.1-1,0.2-1.4
			c0.1-0.4,0.3-0.8,0.6-1.1c0.2-0.3,0.5-0.5,0.9-0.7c0.3-0.2,0.7-0.2,1.2-0.2c0.4,0,0.8,0.1,1.2,0.2c0.4,0.1,0.6,0.4,0.9,0.7
			c0.2,0.3,0.4,0.7,0.5,1.1c0.1,0.4,0.2,0.9,0.2,1.4c0,0.3,0,0.7-0.1,1s-0.1,0.6-0.1,0.8h2.1c0.1-0.4,0.1-0.7,0.2-1.1
			c0.1-0.4,0.1-0.8,0.1-1.1c0-0.6,0-1.2-0.1-1.6c-0.1-0.5-0.2-1-0.5-1.4c-0.3-0.7-0.9-1.2-1.6-1.6c-0.7-0.4-1.6-0.6-2.6-0.6
			c-0.6,0-1.1,0.1-1.6,0.3c-0.5,0.2-1,0.4-1.4,0.6l-0.3-0.6c0.6-0.3,1.2-0.5,1.7-0.7c0.6-0.2,1.2-0.3,1.9-0.3c0.5,0,1,0.1,1.4,0.2
			c0.5,0.1,0.9,0.3,1.2,0.5c0.4,0.2,0.7,0.5,1,0.8s0.5,0.6,0.7,0.9c0.3,0.5,0.5,1,0.6,1.6c0.1,0.6,0.2,1.1,0.2,1.7
			c0,0.5,0,1.1-0.1,1.6s-0.2,1-0.3,1.5H44V526.6z M46.5,524.8c0,0.4,0,0.7,0.1,1c0,0.3,0.1,0.6,0.1,0.8h3.9c0-0.2,0.1-0.4,0.1-0.8
			c0-0.4,0.1-0.7,0.1-1c0-0.4,0-0.8-0.1-1.1c-0.1-0.3-0.2-0.6-0.4-0.9s-0.4-0.4-0.7-0.6c-0.3-0.1-0.6-0.2-0.9-0.2
			c-0.4,0-0.7,0.1-1,0.2c-0.3,0.1-0.5,0.3-0.7,0.6c-0.2,0.3-0.3,0.5-0.4,0.9C46.5,524,46.5,524.4,46.5,524.8z"/>
		<path id="XMLID_155_" class="st1" d="M60.1,526.6h2.2v-10.7h0.6v4.9h5.3c0.4,0,0.8,0.1,1.1,0.2c0.3,0.1,0.6,0.4,0.9,0.7
			c0.2,0.2,0.4,0.5,0.5,0.9c0.1,0.3,0.1,0.7,0.1,1v3.1h1.9v0.6H60L60.1,526.6L60.1,526.6z M63,521.4v5.2h7.4v-2.9
			c0-0.4,0-0.7-0.1-0.9c-0.1-0.3-0.2-0.5-0.4-0.7s-0.4-0.4-0.7-0.5c-0.3-0.1-0.5-0.2-0.8-0.2H63L63,521.4z"/>
		<path id="XMLID_158_" class="st1" d="M72.5,526.6h2.8l-2-5.1c0.6-0.5,1.2-0.9,1.9-1.2c0.7-0.3,1.4-0.5,2.1-0.5
			c0.7,0,1.3,0.2,2,0.5s1.3,0.7,1.9,1.2l-2.1,5.1h3.2v0.6h-9.9v-0.6H72.5z M77.3,520.4c-0.6,0-1.1,0.1-1.7,0.3
			c-0.6,0.2-1.1,0.5-1.6,0.9l2,4.9h2.4l2-4.9c-0.2-0.2-0.4-0.3-0.7-0.5c-0.3-0.1-0.5-0.3-0.8-0.4c-0.3-0.1-0.6-0.2-0.9-0.3
			C77.9,520.4,77.6,520.4,77.3,520.4z M77.7,517.8c-0.1,0.1-0.2,0.2-0.4,0.2s-0.3-0.1-0.4-0.2c-0.1-0.1-0.2-0.2-0.2-0.4
			s0.1-0.3,0.2-0.4c0.1-0.1,0.2-0.2,0.4-0.2s0.3,0.1,0.4,0.2c0.1,0.1,0.2,0.2,0.2,0.4C77.9,517.6,77.8,517.7,77.7,517.8z"/>
		<path id="XMLID_162_" class="st1" d="M82.1,526.6h2.2v-6.8h0.6v1h5.3c0.4,0,0.8,0.1,1.1,0.2c0.3,0.1,0.6,0.4,0.9,0.7
			c0.2,0.2,0.4,0.5,0.5,0.9c0.1,0.4,0.1,0.7,0.1,1v3.7H82L82.1,526.6L82.1,526.6z M84.9,521.4v5.2h7.4v-2.9c0-0.4,0-0.7-0.1-0.9
			c-0.1-0.3-0.2-0.5-0.4-0.7s-0.4-0.4-0.7-0.5c-0.3-0.1-0.5-0.2-0.8-0.2H84.9L84.9,521.4z M88.8,518.6c-0.1,0.1-0.2,0.2-0.4,0.2
			s-0.3-0.1-0.4-0.2c-0.1-0.1-0.2-0.2-0.2-0.4s0.1-0.3,0.2-0.4c0.1-0.1,0.2-0.2,0.4-0.2s0.3,0.1,0.4,0.2c0.1,0.1,0.2,0.2,0.2,0.4
			C89,518.4,89,518.5,88.8,518.6z"/>
		<path id="XMLID_166_" class="st1" d="M96.4,530.3c-0.5,0-0.9-0.1-1.1-0.4c-0.2-0.3-0.4-0.7-0.4-1.2v-0.4h2.4v0.6h-1.8
			c0,0.3,0.1,0.5,0.2,0.6c0.1,0.1,0.4,0.2,0.7,0.2h0.4v0.6H96.4L96.4,530.3z M95.9,515.8h0.6v11.4h-0.6V515.8z"/>
	</g>
	<g id="XMLID_37_">
		
			<linearGradient id="XMLID_4_" gradientUnits="userSpaceOnUse" x1="35.1018" y1="415.98" x2="41.0056" y2="415.98" gradientTransform="matrix(1 0 0 -1 0 843.67)">
			<stop  offset="0" style="stop-color:#8A5E3C"/>
			<stop  offset="0.1185" style="stop-color:#8A5E3C"/>
			<stop  offset="0.2138" style="stop-color:#946743"/>
			<stop  offset="0.5686" style="stop-color:#B58A5F"/>
			<stop  offset="0.7606" style="stop-color:#C3996B"/>
			<stop  offset="1" style="stop-color:#C3996B"/>
		</linearGradient>
		<path id="XMLID_55_" class="st2" d="M36,429.6c0.6,0.5,1.3,0.7,2.1,0.7s1.5-0.2,2.1-0.7s0.9-1.1,0.9-2c0-0.8-0.3-1.4-0.8-1.9
			c-0.6-0.5-1.3-0.7-2.1-0.7s-1.5,0.2-2.1,0.7s-0.8,1.1-0.8,1.9C35.1,428.4,35.4,429.1,36,429.6z"/>
		
			<linearGradient id="XMLID_5_" gradientUnits="userSpaceOnUse" x1="74.9524" y1="384.98" x2="80.5686" y2="384.98" gradientTransform="matrix(1 0 0 -1 0 843.67)">
			<stop  offset="0" style="stop-color:#8A5E3C"/>
			<stop  offset="0.1185" style="stop-color:#8A5E3C"/>
			<stop  offset="0.2138" style="stop-color:#946743"/>
			<stop  offset="0.5686" style="stop-color:#B58A5F"/>
			<stop  offset="0.7606" style="stop-color:#C3996B"/>
			<stop  offset="1" style="stop-color:#C3996B"/>
		</linearGradient>
		<path id="XMLID_56_" class="st3" d="M77.8,456.1c-0.8,0-1.5,0.2-2,0.7s-0.8,1.1-0.8,1.9s0.3,1.5,0.8,1.9c0.6,0.4,1.2,0.6,2,0.6
			s1.4-0.2,2-0.6s0.8-1.1,0.8-1.9s-0.3-1.4-0.8-1.9C79.2,456.3,78.6,456.1,77.8,456.1z"/>
		
			<linearGradient id="XMLID_6_" gradientUnits="userSpaceOnUse" x1="82.7649" y1="384.98" x2="88.3811" y2="384.98" gradientTransform="matrix(1 0 0 -1 0 843.67)">
			<stop  offset="0" style="stop-color:#8A5E3C"/>
			<stop  offset="0.1185" style="stop-color:#8A5E3C"/>
			<stop  offset="0.2138" style="stop-color:#946743"/>
			<stop  offset="0.5686" style="stop-color:#B58A5F"/>
			<stop  offset="0.7606" style="stop-color:#C3996B"/>
			<stop  offset="1" style="stop-color:#C3996B"/>
		</linearGradient>
		<path id="XMLID_57_" class="st4" d="M85.6,456.1c-0.8,0-1.5,0.2-2,0.7s-0.8,1.1-0.8,1.9s0.3,1.5,0.8,1.9c0.6,0.4,1.2,0.6,2,0.6
			s1.4-0.2,2-0.6s0.8-1.1,0.8-1.9s-0.3-1.4-0.8-1.9S86.4,456.1,85.6,456.1z"/>
		
			<linearGradient id="XMLID_7_" gradientUnits="userSpaceOnUse" x1="22.2859" y1="402.93" x2="111.4925" y2="402.93" gradientTransform="matrix(1 0 0 -1 0 843.67)">
			<stop  offset="0" style="stop-color:#8A5E3C"/>
			<stop  offset="0.1185" style="stop-color:#8A5E3C"/>
			<stop  offset="0.2138" style="stop-color:#946743"/>
			<stop  offset="0.5686" style="stop-color:#B58A5F"/>
			<stop  offset="0.7606" style="stop-color:#C3996B"/>
			<stop  offset="1" style="stop-color:#C3996B"/>
		</linearGradient>
		<path id="XMLID_60_" class="st5" d="M105.6,433.3c-1.8,0-3.4,0.2-4.9,0.7s-2.8,1.1-3.8,2c-1.1,0.9-1.9,1.9-2.5,3.2
			c-0.6,1.2-0.9,2.7-0.9,4.2c0,1,0.2,2,0.5,2.8s0.7,1.6,1.3,2.3h-4.1h-0.7h-5.9v-15.2h-5v15.2h-6.8h-0.7h-3.3
			c0.1-0.4,0.1-0.7,0.2-1.1c0-0.4,0.1-0.8,0.1-1.2c0-1.6-0.3-3-0.8-4.4c-0.6-1.3-1.3-2.5-2.3-3.5s-2.2-1.8-3.5-2.3
			c-1.3-0.6-2.8-0.8-4.3-0.8s-2.9,0.3-4.2,0.9s-2.4,1.4-3.4,2.4s-1.7,2.2-2.3,3.5s-0.8,2.8-0.8,4.3c0,0.4,0,0.8,0.1,1.2
			c0,0.4,0.1,0.8,0.2,1.1H45h-0.7h-3.2v-15.2h-5v15.2h-3.7h-0.7h-3.9v-24.2h-5v29.2h8.9h0.7h12h0.7h5.5c1,1.1,2.2,1.9,3.5,2.5
			s2.8,0.9,4.3,0.9c1.6,0,3-0.3,4.4-0.9s2.6-1.4,3.6-2.5h6h0.7h17.7h0.7h20.4v-20.3L105.6,433.3L105.6,433.3z M63.3,448.5
			c-0.3,0.7-0.7,1.3-1.3,1.8c-0.5,0.5-1.2,0.9-1.9,1.2c-0.7,0.3-1.5,0.4-2.3,0.4s-1.6-0.1-2.3-0.5c-0.7-0.3-1.3-0.7-1.8-1.2
			s-0.9-1.1-1.2-1.8s-0.4-1.5-0.4-2.3s0.1-1.6,0.4-2.3c0.3-0.7,0.7-1.3,1.2-1.9c0.5-0.5,1.1-0.9,1.8-1.3c0.7-0.3,1.5-0.5,2.3-0.5
			c0.9,0,1.7,0.2,2.4,0.5s1.3,0.7,1.9,1.2c0.5,0.5,0.9,1.2,1.2,1.9c0.3,0.7,0.4,1.5,0.4,2.3C63.8,447,63.6,447.8,63.3,448.5z
			 M106.5,448.5h-5.2c-0.8-0.6-1.5-1.3-2-2.2c-0.5-0.9-0.7-1.8-0.7-3c0-0.8,0.2-1.5,0.5-2.2c0.3-0.6,0.8-1.2,1.3-1.6s1.2-0.8,1.9-1
			s1.4-0.3,2.1-0.3h2.1L106.5,448.5L106.5,448.5z"/>
		
			<linearGradient id="XMLID_8_" gradientUnits="userSpaceOnUse" x1="105.1927" y1="416.03" x2="110.8089" y2="416.03" gradientTransform="matrix(1 0 0 -1 0 843.67)">
			<stop  offset="0" style="stop-color:#8A5E3C"/>
			<stop  offset="0.1185" style="stop-color:#8A5E3C"/>
			<stop  offset="0.2138" style="stop-color:#946743"/>
			<stop  offset="0.5686" style="stop-color:#B58A5F"/>
			<stop  offset="0.7606" style="stop-color:#C3996B"/>
			<stop  offset="1" style="stop-color:#C3996B"/>
		</linearGradient>
		<path id="XMLID_62_" class="st6" d="M108,430.2c0.8,0,1.4-0.2,2-0.7c0.6-0.4,0.8-1.1,0.8-1.9s-0.3-1.4-0.8-1.9s-1.2-0.7-2-0.7
			s-1.5,0.2-2,0.7s-0.8,1.1-0.8,1.9s0.3,1.5,0.8,1.9C106.6,430,107.2,430.2,108,430.2z"/>
		
			<linearGradient id="XMLID_9_" gradientUnits="userSpaceOnUse" x1="97.3802" y1="416.03" x2="102.9964" y2="416.03" gradientTransform="matrix(1 0 0 -1 0 843.67)">
			<stop  offset="0" style="stop-color:#8A5E3C"/>
			<stop  offset="0.1185" style="stop-color:#8A5E3C"/>
			<stop  offset="0.2138" style="stop-color:#946743"/>
			<stop  offset="0.5686" style="stop-color:#B58A5F"/>
			<stop  offset="0.7606" style="stop-color:#C3996B"/>
			<stop  offset="1" style="stop-color:#C3996B"/>
		</linearGradient>
		<path id="XMLID_63_" class="st7" d="M100.2,430.2c0.8,0,1.4-0.2,2-0.7c0.6-0.4,0.8-1.1,0.8-1.9s-0.3-1.4-0.8-1.9s-1.2-0.7-2-0.7
			s-1.5,0.2-2,0.7s-0.8,1.1-0.8,1.9s0.3,1.5,0.8,1.9C98.8,430,99.4,430.2,100.2,430.2z"/>
	</g>
</g>
</svg>
