<?xml version="1.0" encoding="utf-8"?>
<!-- Generator: Adobe Illustrator 22.0.1, SVG Export Plug-In . SVG Version: 6.00 Build 0)  -->
<svg version="1.1" id="Layer_1" xmlns="http://www.w3.org/2000/svg" xmlns:xlink="http://www.w3.org/1999/xlink" x="0px" y="0px"
	 viewBox="0 0 231.8 190" style="enable-background:new 0 0 231.8 190;" xml:space="preserve">
<style type="text/css">
	.st0{fill:#FFFFFF;}
</style>
<g>
	<path class="st0" d="M115.7,66.7l16.4-16.4c9.4-9.4,9.4-24.6,0-34L115.7,0L99.3,16.4c-4.5,4.5-7,10.6-7,17c0,6.4,2.5,12.4,7,17
		L115.7,66.7z M117.7,34.2L130.9,21c1.5,2,2.7,4.2,3.4,6.5l-16.6,16.6V34.2z M117.7,28.5V7.6l10.5,10.5L117.7,28.5z M113.7,29.4
		l-10.9-10.9l10.9-10.9V29.4z M113.7,35v9.9L97,28.1c0.6-2.4,1.7-4.7,3.2-6.7L113.7,35z M129.2,47.5l-11.6,11.6v-9.4l17.4-17.4
		c0,0.3,0,0.7,0,1C135.1,38.7,133,43.7,129.2,47.5z M96.3,33.1l17.4,17.4v8.5l-11.6-11.6c-3.8-3.8-5.9-8.8-5.9-14.2
		C96.3,33.3,96.3,33.2,96.3,33.1z"/>
	<path class="st0" d="M185.3,107.6c-1.7-6.2-5.7-11.4-11.2-14.5c-3.7-2.1-7.8-3.2-11.9-3.2c-2.1,0-4.2,0.3-6.3,0.8l-22.3,6.1
		l6.1,22.3c3.5,12.8,16.7,20.4,29.5,16.9l22.3-6.1L185.3,107.6z M165.6,117.4l18.1,10.4l-14.3,3.9L165.6,117.4z M185.7,124.4
		l-18.9-10.8l14.8-4L185.7,124.4z M180.5,105.8l-18.5,5l-8.6-4.9l22.8-6.2C178,101.4,179.4,103.4,180.5,105.8z M156.9,94.5
		c5.4-1.5,10.9-0.6,15.4,2.1l-23.8,6.4l-7.4-4.2L156.9,94.5z M143.4,118l-4.3-15.8l8.1,4.7l6.4,23.7
		C148.8,128.2,145,123.7,143.4,118z M158.3,132.3l-6.1-22.6l8.6,4.9l4.9,18C163.1,133,160.6,132.8,158.3,132.3z"/>
	<path class="st0" d="M57.7,80.7c5.6,3.2,12,4,18.2,2.3L98.3,77l-6.1-22.3c-1.7-6.2-5.7-11.4-11.2-14.5c-3.7-2.1-7.8-3.2-11.9-3.2
		c-2.1,0-4.2,0.3-6.3,0.8l-22.3,6.1l6.1,22.3C48.2,72.4,52.2,77.5,57.7,80.7z M66.2,56.3L48.1,45.9L62.3,42L66.2,56.3z M64.9,60.2
		l-14.8,4l-4-14.8L64.9,60.2z M51.4,68l18.5-5l8.6,4.9l-22.8,6.2C53.8,72.4,52.4,70.3,51.4,68z M74.9,79.2
		c-5.4,1.5-10.9,0.6-15.4-2.1l23.8-6.4l7.4,4.2L74.9,79.2z M88.4,55.7l4.3,15.8l-8.1-4.7l-6.4-23.7C83,45.6,86.9,50,88.4,55.7z
		 M73.5,41.4L79.7,64l-8.6-4.9l-4.9-18C68.7,40.8,71.2,40.9,73.5,41.4z"/>
	<path class="st0" d="M155.6,82.4c6.2,1.6,12.7,0.7,18.2-2.5c5.5-3.2,9.5-8.4,11.1-14.6l5.9-22.4L168.4,37c-2-0.5-4.1-0.8-6.1-0.8
		c-4.2,0-8.4,1.1-12.1,3.3c-5.5,3.2-9.5,8.4-11.1,14.6l-5.9,22.4L155.6,82.4z M156.6,78.5l-15.8-4.1l8.1-4.7l23.8,6.2
		c-0.3,0.2-0.6,0.4-0.9,0.6C167.2,79.1,161.8,79.9,156.6,78.5z M176.4,72.7l-22.7-5.9l8.5-5l18,4.7
		C179.4,68.8,178.1,70.9,176.4,72.7z M168.3,41.1l14.9,3.9l-18.8,11L168.3,41.1z M181.5,62.7L167.2,59l18.1-10.6L181.5,62.7z
		 M164.4,40.3l-4.8,18.5l-8.5,5l6-22.9C159.4,40.2,161.9,40,164.4,40.3z M142.9,55.1c1.4-5.2,4.6-9.5,9.3-12.2
		c0.1,0,0.1-0.1,0.2-0.1l-6.2,23.8l-7.4,4.3L142.9,55.1z"/>
	<path class="st0" d="M70.1,90.6c-4.2,0-8.4,1.1-12.1,3.3c-5.5,3.2-9.5,8.4-11.1,14.6L41,130.9l22.4,5.9c6.2,1.6,12.7,0.7,18.2-2.5
		c5.5-3.2,9.5-8.4,11.1-14.6l5.9-22.4l-22.4-5.9C74.2,90.8,72.1,90.6,70.1,90.6z M75.2,95.2L91,99.4l-8.1,4.7l-23.8-6.2
		c0.3-0.2,0.6-0.4,0.9-0.6C64.6,94.6,70,93.9,75.2,95.2z M55.4,101l22.7,5.9l-8.5,5l-18-4.7C52.4,104.9,53.7,102.8,55.4,101z
		 M63.5,132.7l-14.9-3.9l18.8-11L63.5,132.7z M50.3,111l14.3,3.7l-18.1,10.6L50.3,111z M67.4,133.5l4.8-18.5l8.5-5l-6,22.9
		C72.4,133.5,69.9,133.7,67.4,133.5z M88.9,118.6c-1.4,5.2-4.6,9.5-9.3,12.2c-0.1,0-0.1,0.1-0.2,0.1l6.2-23.8l7.4-4.3L88.9,118.6z"
		/>
	<path class="st0" d="M120,120.7l6.3-7.7c3-3.6,4.5-8.1,4.3-12.8c-0.2-4.7-2.2-9-5.5-12.3l-9.7-9.7l-9,11.1
		c-6,7.4-5.5,18.1,1.2,24.9l6.5,6.6l-1.8,1.8c-8.4,8.3-13.1,19.4-13.2,31.2c-0.1,11.8,4.5,23,12.8,31.4l4.6,4.7l5.2-5.2
		c8.2-8.3,12.8-19.3,12.8-31c0-11.7-4.5-22.7-12.7-31.1L120,120.7z M110.7,111.2c-5.1-5.2-5.5-13.5-0.9-19.2l6-7.4l6.3,6.3
		c5.3,5.3,5.7,13.6,0.9,19.4l-6.1,7.3L110.7,111.2z M118.7,181.8l-2.1,2.2l-1.6-1.6c-7.5-7.6-11.6-17.7-11.6-28.4
		c0.1-10.7,4.3-20.7,11.9-28.2l1.8-1.8l1.7,1.7c7.4,7.5,11.5,17.5,11.4,28.1C130.2,164.3,126.1,174.3,118.7,181.8z"/>
</g>
</svg>
